<svg width="220" height="59" viewBox="0 0 220 59" fill="none" xmlns="http://www.w3.org/2000/svg">
<path d="M196.55 28.875L198.058 22.6357L193 18.4391L199.682 17.884L202.281 12L204.88 17.884L211.562 18.4391L206.504 22.6357L208.012 28.875L202.281 25.5666L196.55 28.875Z" fill="#E3D022"/>
<path d="M204.988 42.375L206.496 36.1357L201.438 31.9391L208.12 31.384L210.719 25.5L213.318 31.384L220 31.9391L214.942 36.1357L216.45 42.375L210.719 39.0666L204.988 42.375Z" fill="#E3D022"/>
<path fill-rule="evenodd" clip-rule="evenodd" d="M27.8093 5.81115L29.8191 10.7732C30.4216 10.5291 31.0661 10.4056 31.7157 10.4097C32.3653 10.4138 33.0074 10.5454 33.6052 10.797C34.2031 11.0486 34.745 11.4152 35.2 11.876C35.655 12.3368 36.0143 12.8827 36.2572 13.4825C36.5002 14.0824 36.6221 14.7244 36.616 15.372C36.6098 16.0195 36.4758 16.6599 36.2216 17.2566C35.9673 17.8534 35.5978 18.3947 35.1341 18.8497C34.6704 19.3047 34.1216 19.6645 33.5191 19.9085L35.3691 24.4762C36.3854 26.9854 34.0889 29.5833 31.4618 28.8945L27.3579 27.8167C25.1647 27.2417 22.8639 27.1966 20.6464 27.6851L22.4002 32.0153C22.8035 33.0106 22.8318 34.1187 22.4799 35.1356C22.1281 36.1524 21.4197 37.0093 20.4854 37.5483C19.5511 38.0873 18.4539 38.2721 17.396 38.0686C16.3381 37.8651 15.3908 37.287 14.7288 36.441L8.93843 29.0455C7.6629 28.3796 6.6001 27.3717 5.86949 26.1351C5.13888 24.8985 4.76942 23.4821 4.80265 22.0453C4.83587 20.6085 5.27047 19.2082 6.05758 18.0017C6.84469 16.7952 7.95311 15.8305 9.25825 15.2159L13.7703 13.0906C15.978 12.0508 17.9081 10.5043 19.402 8.57827L22.1433 5.04345C23.7043 3.03408 26.8572 3.46032 27.8093 5.81115ZM13.7422 29.8293L17.3313 34.4139C17.5046 34.636 17.7528 34.7878 18.0302 34.8414C18.3076 34.8949 18.5954 34.8465 18.8404 34.7052C19.0854 34.5638 19.2711 34.339 19.3632 34.0723C19.4553 33.8056 19.4476 33.515 19.3414 33.2541L17.4852 28.6712L15.0458 29.5051C14.6213 29.6503 14.1851 29.7588 13.7422 29.8293ZM24.7505 7.05003L22.0084 10.587C20.3417 12.7339 18.2266 14.4941 15.8104 15.7452L19.3988 24.605C22.2836 23.8726 25.3149 23.8801 28.2065 24.6372L32.3104 25.7151L24.7505 7.05003ZM12.8256 17.1668L10.6574 18.1868C9.64869 18.6613 8.85395 19.495 8.43005 20.5233C8.00615 21.5515 7.98387 22.6996 8.36763 23.741C8.75139 24.7823 9.51328 25.6412 10.5029 26.148C11.4926 26.6549 12.638 26.773 13.7132 26.4789L13.9825 26.3964L16.2494 25.62L12.8256 17.1668ZM31.0524 13.8183L32.2858 16.8634C32.6754 16.7051 32.9901 16.4046 33.1657 16.0234C33.3412 15.6422 33.3643 15.209 33.2303 14.8124C33.0962 14.4157 32.8151 14.0855 32.4444 13.8893C32.0737 13.693 31.6413 13.6455 31.2357 13.7565L31.0524 13.8183Z" fill="#D9D9D9"/>
<g filter="url(#filter0_d_200_132)">
<mask id="path-4-outside-1_200_132" maskUnits="userSpaceOnUse" x="27" y="20" width="173" height="32" fill="black">
<rect fill="white" x="27" y="20" width="173" height="32"/>
<path d="M48 21.5H57.5L49.8 50H36.75L29 21.5H38.55L43.15 43.8H43.4L48 21.5ZM60.0656 21.5H69.0656V50H60.0656V21.5ZM85.627 21.35C88.327 21.35 90.6103 21.6 92.477 22.1C94.3436 22.6 95.827 23.5667 96.927 25C98.0603 26.4 98.627 28.4167 98.627 31.05C98.627 32.2167 98.4436 33.4167 98.077 34.65C97.7436 35.85 97.3103 36.9 96.777 37.8C96.277 38.7 95.827 39.2833 95.427 39.55C94.9603 39.8833 93.927 40.15 92.327 40.35C90.727 40.5167 88.8436 40.6 86.677 40.6C85.9103 40.6 84.727 40.5667 83.127 40.5V50H74.127V21.5C77.627 21.4 81.4603 21.35 85.627 21.35ZM89.377 34.2C89.7103 33.7667 89.877 32.9 89.877 31.6C89.877 29.9 89.5103 28.7 88.777 28C88.077 27.3 86.8436 26.95 85.077 26.95C84.477 26.95 83.827 27 83.127 27.1V34.7C83.4603 34.7333 84.1103 34.75 85.077 34.75C87.6436 34.75 89.077 34.5667 89.377 34.2ZM124.282 50H115.282V27.75H107.232V21.5H132.332V27.75H124.282V50ZM135.261 21.5H144.261V50H135.261V21.5ZM160.822 21.35C163.522 21.35 165.806 21.6 167.672 22.1C169.539 22.6 171.022 23.5667 172.122 25C173.256 26.4 173.822 28.4167 173.822 31.05C173.822 32.2167 173.639 33.4167 173.272 34.65C172.939 35.85 172.506 36.9 171.972 37.8C171.472 38.7 171.022 39.2833 170.622 39.55C170.156 39.8833 169.122 40.15 167.522 40.35C165.922 40.5167 164.039 40.6 161.872 40.6C161.106 40.6 159.922 40.5667 158.322 40.5V50H149.322V21.5C152.822 21.4 156.656 21.35 160.822 21.35ZM164.572 34.2C164.906 33.7667 165.072 32.9 165.072 31.6C165.072 29.9 164.706 28.7 163.972 28C163.272 27.3 162.039 26.95 160.272 26.95C159.672 26.95 159.022 27 158.322 27.1V34.7C158.656 34.7333 159.306 34.75 160.272 34.75C162.839 34.75 164.272 34.5667 164.572 34.2ZM185.208 29.2C185.208 29.9 185.558 30.45 186.258 30.85C186.991 31.25 188.124 31.6833 189.658 32.15C191.491 32.75 192.991 33.3333 194.158 33.9C195.358 34.4667 196.391 35.35 197.258 36.55C198.158 37.75 198.608 39.3167 198.608 41.25C198.608 47.45 194.574 50.55 186.508 50.55C185.174 50.55 183.541 50.4333 181.608 50.2C179.708 49.9667 177.974 49.6667 176.408 49.3C176.474 48.6 176.608 47.5833 176.808 46.25C177.041 44.8833 177.258 43.8667 177.458 43.2C178.624 43.3667 180.374 43.5667 182.708 43.8C185.074 44.0333 186.858 44.15 188.058 44.15C188.758 44.15 189.174 44.1 189.308 44C189.508 43.8667 189.658 43.65 189.758 43.35C189.891 43.0167 189.958 42.7333 189.958 42.5C189.958 41.8333 189.641 41.3333 189.008 41C188.374 40.6333 187.291 40.2 185.758 39.7C183.924 39.1333 182.408 38.55 181.208 37.95C180.008 37.35 178.958 36.4167 178.058 35.15C177.158 33.8833 176.708 32.2167 176.708 30.15C176.708 28.6833 177.041 27.25 177.708 25.85C178.374 24.4167 179.058 23.45 179.758 22.95C180.291 22.5833 181.391 22.2333 183.058 21.9C184.724 21.5667 186.291 21.4 187.758 21.4C191.491 21.4 194.541 21.75 196.908 22.45C196.874 23.1167 196.758 24.0333 196.558 25.2C196.391 26.3667 196.208 27.4333 196.008 28.4L194.858 28.35C190.524 28.05 187.758 27.9 186.558 27.9C186.058 27.9 185.774 27.9167 185.708 27.95C185.574 28.0167 185.458 28.1667 185.358 28.4C185.258 28.6333 185.208 28.9 185.208 29.2Z"/>
</mask>
<path d="M48 21.5H57.5L49.8 50H36.75L29 21.5H38.55L43.15 43.8H43.4L48 21.5ZM60.0656 21.5H69.0656V50H60.0656V21.5ZM85.627 21.35C88.327 21.35 90.6103 21.6 92.477 22.1C94.3436 22.6 95.827 23.5667 96.927 25C98.0603 26.4 98.627 28.4167 98.627 31.05C98.627 32.2167 98.4436 33.4167 98.077 34.65C97.7436 35.85 97.3103 36.9 96.777 37.8C96.277 38.7 95.827 39.2833 95.427 39.55C94.9603 39.8833 93.927 40.15 92.327 40.35C90.727 40.5167 88.8436 40.6 86.677 40.6C85.9103 40.6 84.727 40.5667 83.127 40.5V50H74.127V21.5C77.627 21.4 81.4603 21.35 85.627 21.35ZM89.377 34.2C89.7103 33.7667 89.877 32.9 89.877 31.6C89.877 29.9 89.5103 28.7 88.777 28C88.077 27.3 86.8436 26.95 85.077 26.95C84.477 26.95 83.827 27 83.127 27.1V34.7C83.4603 34.7333 84.1103 34.75 85.077 34.75C87.6436 34.75 89.077 34.5667 89.377 34.2ZM124.282 50H115.282V27.75H107.232V21.5H132.332V27.75H124.282V50ZM135.261 21.5H144.261V50H135.261V21.5ZM160.822 21.35C163.522 21.35 165.806 21.6 167.672 22.1C169.539 22.6 171.022 23.5667 172.122 25C173.256 26.4 173.822 28.4167 173.822 31.05C173.822 32.2167 173.639 33.4167 173.272 34.65C172.939 35.85 172.506 36.9 171.972 37.8C171.472 38.7 171.022 39.2833 170.622 39.55C170.156 39.8833 169.122 40.15 167.522 40.35C165.922 40.5167 164.039 40.6 161.872 40.6C161.106 40.6 159.922 40.5667 158.322 40.5V50H149.322V21.5C152.822 21.4 156.656 21.35 160.822 21.35ZM164.572 34.2C164.906 33.7667 165.072 32.9 165.072 31.6C165.072 29.9 164.706 28.7 163.972 28C163.272 27.3 162.039 26.95 160.272 26.95C159.672 26.95 159.022 27 158.322 27.1V34.7C158.656 34.7333 159.306 34.75 160.272 34.75C162.839 34.75 164.272 34.5667 164.572 34.2ZM185.208 29.2C185.208 29.9 185.558 30.45 186.258 30.85C186.991 31.25 188.124 31.6833 189.658 32.15C191.491 32.75 192.991 33.3333 194.158 33.9C195.358 34.4667 196.391 35.35 197.258 36.55C198.158 37.75 198.608 39.3167 198.608 41.25C198.608 47.45 194.574 50.55 186.508 50.55C185.174 50.55 183.541 50.4333 181.608 50.2C179.708 49.9667 177.974 49.6667 176.408 49.3C176.474 48.6 176.608 47.5833 176.808 46.25C177.041 44.8833 177.258 43.8667 177.458 43.2C178.624 43.3667 180.374 43.5667 182.708 43.8C185.074 44.0333 186.858 44.15 188.058 44.15C188.758 44.15 189.174 44.1 189.308 44C189.508 43.8667 189.658 43.65 189.758 43.35C189.891 43.0167 189.958 42.7333 189.958 42.5C189.958 41.8333 189.641 41.3333 189.008 41C188.374 40.6333 187.291 40.2 185.758 39.7C183.924 39.1333 182.408 38.55 181.208 37.95C180.008 37.35 178.958 36.4167 178.058 35.15C177.158 33.8833 176.708 32.2167 176.708 30.15C176.708 28.6833 177.041 27.25 177.708 25.85C178.374 24.4167 179.058 23.45 179.758 22.95C180.291 22.5833 181.391 22.2333 183.058 21.9C184.724 21.5667 186.291 21.4 187.758 21.4C191.491 21.4 194.541 21.75 196.908 22.45C196.874 23.1167 196.758 24.0333 196.558 25.2C196.391 26.3667 196.208 27.4333 196.008 28.4L194.858 28.35C190.524 28.05 187.758 27.9 186.558 27.9C186.058 27.9 185.774 27.9167 185.708 27.95C185.574 28.0167 185.458 28.1667 185.358 28.4C185.258 28.6333 185.208 28.9 185.208 29.2Z" fill="#D9D9D9"/>
<path d="M48 21.5V20.5H47.1852L47.0206 21.298L48 21.5ZM57.5 21.5L58.4654 21.7608L58.806 20.5H57.5V21.5ZM49.8 50V51H50.5657L50.7654 50.2608L49.8 50ZM36.75 50L35.785 50.2624L35.9856 51H36.75V50ZM29 21.5V20.5H27.6918L28.035 21.7624L29 21.5ZM38.55 21.5L39.5294 21.298L39.3648 20.5H38.55V21.5ZM43.15 43.8L42.1706 44.002L42.3352 44.8H43.15V43.8ZM43.4 43.8V44.8H44.2148L44.3794 44.002L43.4 43.8ZM48 22.5H57.5V20.5H48V22.5ZM56.5346 21.2392L48.8346 49.7392L50.7654 50.2608L58.4654 21.7608L56.5346 21.2392ZM49.8 49H36.75V51H49.8V49ZM37.715 49.7376L29.965 21.2376L28.035 21.7624L35.785 50.2624L37.715 49.7376ZM29 22.5H38.55V20.5H29V22.5ZM37.5706 21.702L42.1706 44.002L44.1294 43.598L39.5294 21.298L37.5706 21.702ZM43.15 44.8H43.4V42.8H43.15V44.8ZM44.3794 44.002L48.9794 21.702L47.0206 21.298L42.4206 43.598L44.3794 44.002ZM60.0656 21.5V20.5H59.0656V21.5H60.0656ZM69.0656 21.5H70.0656V20.5H69.0656V21.5ZM69.0656 50V51H70.0656V50H69.0656ZM60.0656 50H59.0656V51H60.0656V50ZM60.0656 22.5H69.0656V20.5H60.0656V22.5ZM68.0656 21.5V50H70.0656V21.5H68.0656ZM69.0656 49H60.0656V51H69.0656V49ZM61.0656 50V21.5H59.0656V50H61.0656ZM96.927 25L96.1336 25.6088L96.1415 25.6191L96.1497 25.6292L96.927 25ZM98.077 34.65L97.1184 34.365L97.1159 34.3737L97.1134 34.3824L98.077 34.65ZM96.777 37.8L95.9167 37.2902L95.9096 37.3022L95.9028 37.3144L96.777 37.8ZM95.427 39.55L94.8723 38.7179L94.8588 38.7269L94.8457 38.7363L95.427 39.55ZM92.327 40.35L92.4306 41.3446L92.4408 41.3436L92.451 41.3423L92.327 40.35ZM83.127 40.5L83.1686 39.5009L82.127 39.4575V40.5H83.127ZM83.127 50V51H84.127V50H83.127ZM74.127 50H73.127V51H74.127V50ZM74.127 21.5L74.0984 20.5004L73.127 20.5282V21.5H74.127ZM89.377 34.2L90.1509 34.8332L90.1604 34.8216L90.1696 34.8097L89.377 34.2ZM88.777 28L88.0698 28.7071L88.0781 28.7153L88.0865 28.7234L88.777 28ZM83.127 27.1L82.9855 26.11L82.127 26.2327V27.1H83.127ZM83.127 34.7H82.127V35.605L83.0274 35.695L83.127 34.7ZM85.627 22.35C88.2713 22.35 90.4619 22.5955 92.2182 23.0659L92.7357 21.1341C90.7587 20.6045 88.3826 20.35 85.627 20.35V22.35ZM92.2182 23.0659C93.888 23.5132 95.1773 24.3627 96.1336 25.6088L97.7203 24.3912C96.4766 22.7707 94.7992 21.6868 92.7357 21.1341L92.2182 23.0659ZM96.1497 25.6292C97.0855 26.7851 97.627 28.5432 97.627 31.05H99.627C99.627 28.2902 99.0351 26.0149 97.7042 24.3708L96.1497 25.6292ZM97.627 31.05C97.627 32.1108 97.4604 33.2148 97.1184 34.365L99.0355 34.935C99.4269 33.6186 99.627 32.3225 99.627 31.05H97.627ZM97.1134 34.3824C96.7994 35.5131 96.3975 36.4788 95.9167 37.2902L97.6372 38.3098C98.2231 37.3212 98.6879 36.1869 99.0405 34.9176L97.1134 34.3824ZM95.9028 37.3144C95.4111 38.1994 95.0577 38.5943 94.8723 38.7179L95.9817 40.382C96.5962 39.9723 97.1428 39.2006 97.6511 38.2856L95.9028 37.3144ZM94.8457 38.7363C94.7648 38.7941 94.5341 38.9073 94.0521 39.0317C93.592 39.1505 92.9796 39.2606 92.2029 39.3577L92.451 41.3423C93.2743 41.2394 93.9786 41.1162 94.5518 40.9683C95.1031 40.826 95.6225 40.6393 96.0082 40.3637L94.8457 38.7363ZM92.2234 39.3554C90.6672 39.5175 88.82 39.6 86.677 39.6V41.6C88.8672 41.6 90.7867 41.5159 92.4306 41.3446L92.2234 39.3554ZM86.677 39.6C85.9322 39.6 84.7662 39.5674 83.1686 39.5009L83.0853 41.4991C84.6877 41.5659 85.8883 41.6 86.677 41.6V39.6ZM82.127 40.5V50H84.127V40.5H82.127ZM83.127 49H74.127V51H83.127V49ZM75.127 50V21.5H73.127V50H75.127ZM74.1555 22.4996C77.6444 22.3999 81.4681 22.35 85.627 22.35V20.35C81.4525 20.35 77.6095 20.4001 74.0984 20.5004L74.1555 22.4996ZM90.1696 34.8097C90.4724 34.4161 90.6373 33.9167 90.734 33.4138C90.8334 32.8966 90.877 32.2866 90.877 31.6H88.877C88.877 32.2134 88.8371 32.6867 88.7699 33.0362C88.7 33.4 88.6149 33.5506 88.5843 33.5903L90.1696 34.8097ZM90.877 31.6C90.877 29.8024 90.4971 28.2595 89.4674 27.2766L88.0865 28.7234C88.5235 29.1405 88.877 29.9976 88.877 31.6H90.877ZM89.4841 27.2929C88.4948 26.3037 86.918 25.95 85.077 25.95V27.95C86.7692 27.95 87.6591 28.2963 88.0698 28.7071L89.4841 27.2929ZM85.077 25.95C84.4222 25.95 83.7244 26.0045 82.9855 26.11L83.2684 28.0899C83.9296 27.9955 84.5317 27.95 85.077 27.95V25.95ZM82.127 27.1V34.7H84.127V27.1H82.127ZM83.0274 35.695C83.4182 35.7341 84.1172 35.75 85.077 35.75V33.75C84.1034 33.75 83.5024 33.7326 83.2265 33.705L83.0274 35.695ZM85.077 35.75C86.3756 35.75 87.4248 35.7041 88.2038 35.6044C88.5914 35.5549 88.9448 35.4881 89.2419 35.3938C89.5005 35.3117 89.8839 35.1596 90.1509 34.8332L88.603 33.5668C88.72 33.4238 88.8118 33.432 88.637 33.4875C88.5008 33.5307 88.2792 33.5785 87.9501 33.6206C87.2958 33.7043 86.345 33.75 85.077 33.75V35.75ZM124.282 50V51H125.282V50H124.282ZM115.282 50H114.282V51H115.282V50ZM115.282 27.75H116.282V26.75H115.282V27.75ZM107.232 27.75H106.232V28.75H107.232V27.75ZM107.232 21.5V20.5H106.232V21.5H107.232ZM132.332 21.5H133.332V20.5H132.332V21.5ZM132.332 27.75V28.75H133.332V27.75H132.332ZM124.282 27.75V26.75H123.282V27.75H124.282ZM124.282 49H115.282V51H124.282V49ZM116.282 50V27.75H114.282V50H116.282ZM115.282 26.75H107.232V28.75H115.282V26.75ZM108.232 27.75V21.5H106.232V27.75H108.232ZM107.232 22.5H132.332V20.5H107.232V22.5ZM131.332 21.5V27.75H133.332V21.5H131.332ZM132.332 26.75H124.282V28.75H132.332V26.75ZM123.282 27.75V50H125.282V27.75H123.282ZM135.261 21.5V20.5H134.261V21.5H135.261ZM144.261 21.5H145.261V20.5H144.261V21.5ZM144.261 50V51H145.261V50H144.261ZM135.261 50H134.261V51H135.261V50ZM135.261 22.5H144.261V20.5H135.261V22.5ZM143.261 21.5V50H145.261V21.5H143.261ZM144.261 49H135.261V51H144.261V49ZM136.261 50V21.5H134.261V50H136.261ZM172.122 25L171.329 25.6088L171.337 25.6191L171.345 25.6292L172.122 25ZM173.272 34.65L172.314 34.365L172.311 34.3737L172.309 34.3824L173.272 34.65ZM171.972 37.8L171.112 37.2902L171.105 37.3022L171.098 37.3144L171.972 37.8ZM170.622 39.55L170.068 38.7179L170.054 38.7269L170.041 38.7363L170.622 39.55ZM167.522 40.35L167.626 41.3446L167.636 41.3436L167.646 41.3423L167.522 40.35ZM158.322 40.5L158.364 39.5009L157.322 39.4575V40.5H158.322ZM158.322 50V51H159.322V50H158.322ZM149.322 50H148.322V51H149.322V50ZM149.322 21.5L149.294 20.5004L148.322 20.5282V21.5H149.322ZM164.572 34.2L165.346 34.8332L165.356 34.8216L165.365 34.8097L164.572 34.2ZM163.972 28L163.265 28.7071L163.273 28.7153L163.282 28.7234L163.972 28ZM158.322 27.1L158.181 26.11L157.322 26.2327V27.1H158.322ZM158.322 34.7H157.322V35.605L158.223 35.695L158.322 34.7ZM160.822 22.35C163.467 22.35 165.657 22.5955 167.414 23.0659L167.931 21.1341C165.954 20.6045 163.578 20.35 160.822 20.35V22.35ZM167.414 23.0659C169.083 23.5132 170.373 24.3627 171.329 25.6088L172.916 24.3912C171.672 22.7707 169.995 21.6868 167.931 21.1341L167.414 23.0659ZM171.345 25.6292C172.281 26.7851 172.822 28.5432 172.822 31.05H174.822C174.822 28.2902 174.23 26.0149 172.9 24.3708L171.345 25.6292ZM172.822 31.05C172.822 32.1108 172.656 33.2148 172.314 34.365L174.231 34.935C174.622 33.6186 174.822 32.3225 174.822 31.05H172.822ZM172.309 34.3824C171.995 35.5131 171.593 36.4788 171.112 37.2902L172.833 38.3098C173.418 37.3212 173.883 36.1869 174.236 34.9176L172.309 34.3824ZM171.098 37.3144C170.606 38.1994 170.253 38.5943 170.068 38.7179L171.177 40.382C171.792 39.9723 172.338 39.2006 172.846 38.2856L171.098 37.3144ZM170.041 38.7363C169.96 38.7941 169.729 38.9073 169.247 39.0317C168.787 39.1505 168.175 39.2606 167.398 39.3577L167.646 41.3423C168.47 41.2394 169.174 41.1162 169.747 40.9683C170.298 40.826 170.818 40.6393 171.204 40.3637L170.041 38.7363ZM167.419 39.3554C165.863 39.5175 164.015 39.6 161.872 39.6V41.6C164.063 41.6 165.982 41.5159 167.626 41.3446L167.419 39.3554ZM161.872 39.6C161.128 39.6 159.962 39.5674 158.364 39.5009L158.281 41.4991C159.883 41.5659 161.084 41.6 161.872 41.6V39.6ZM157.322 40.5V50H159.322V40.5H157.322ZM158.322 49H149.322V51H158.322V49ZM150.322 50V21.5H148.322V50H150.322ZM149.351 22.4996C152.84 22.3999 156.663 22.35 160.822 22.35V20.35C156.648 20.35 152.805 20.4001 149.294 20.5004L149.351 22.4996ZM165.365 34.8097C165.668 34.4161 165.833 33.9167 165.929 33.4138C166.029 32.8966 166.072 32.2866 166.072 31.6H164.072C164.072 32.2134 164.032 32.6867 163.965 33.0362C163.895 33.4 163.81 33.5506 163.78 33.5903L165.365 34.8097ZM166.072 31.6C166.072 29.8024 165.692 28.2595 164.663 27.2766L163.282 28.7234C163.719 29.1405 164.072 29.9976 164.072 31.6H166.072ZM164.679 27.2929C163.69 26.3037 162.113 25.95 160.272 25.95V27.95C161.965 27.95 162.854 28.2963 163.265 28.7071L164.679 27.2929ZM160.272 25.95C159.617 25.95 158.92 26.0045 158.181 26.11L158.464 28.0899C159.125 27.9955 159.727 27.95 160.272 27.95V25.95ZM157.322 27.1V34.7H159.322V27.1H157.322ZM158.223 35.695C158.614 35.7341 159.313 35.75 160.272 35.75V33.75C159.299 33.75 158.698 33.7326 158.422 33.705L158.223 35.695ZM160.272 35.75C161.571 35.75 162.62 35.7041 163.399 35.6044C163.787 35.5549 164.14 35.4881 164.437 35.3938C164.696 35.3117 165.079 35.1596 165.346 34.8332L163.798 33.5668C163.915 33.4238 164.007 33.432 163.832 33.4875C163.696 33.5307 163.475 33.5785 163.145 33.6206C162.491 33.7043 161.54 33.75 160.272 33.75V35.75ZM186.258 30.85L185.762 31.7182L185.77 31.7232L185.779 31.7279L186.258 30.85ZM189.658 32.15L189.969 31.1996L189.959 31.1964L189.949 31.1933L189.658 32.15ZM194.158 33.9L193.721 34.7996L193.731 34.8042L194.158 33.9ZM197.258 36.55L196.447 37.1355L196.452 37.1428L196.458 37.15L197.258 36.55ZM181.608 50.2L181.486 51.1925L181.488 51.1928L181.608 50.2ZM176.408 49.3L175.412 49.2052L175.33 50.0747L176.18 50.2737L176.408 49.3ZM176.808 46.25L175.822 46.0817L175.82 46.0917L175.819 46.1017L176.808 46.25ZM177.458 43.2L177.599 42.21L176.747 42.0883L176.5 42.9127L177.458 43.2ZM182.708 43.8L182.608 44.795L182.61 44.7952L182.708 43.8ZM189.308 44L188.753 43.1679L188.73 43.1833L188.708 43.2L189.308 44ZM189.758 43.35L188.829 42.9786L188.818 43.0059L188.809 43.0338L189.758 43.35ZM189.008 41L188.507 41.8654L188.524 41.8755L188.542 41.8849L189.008 41ZM185.758 39.7L186.068 38.7493L186.061 38.7469L186.053 38.7446L185.758 39.7ZM181.208 37.95L181.655 37.0556L181.208 37.95ZM178.058 35.15L178.873 34.5708L178.058 35.15ZM177.708 25.85L178.611 26.28L178.615 26.2717L177.708 25.85ZM179.758 22.95L179.191 22.126L179.184 22.131L179.177 22.1363L179.758 22.95ZM183.058 21.9L182.862 20.9194L183.058 21.9ZM196.908 22.45L197.907 22.4999L197.946 21.7142L197.191 21.4911L196.908 22.45ZM196.558 25.2L195.572 25.031L195.57 25.0448L195.568 25.0586L196.558 25.2ZM196.008 28.4L195.964 29.3991L196.815 29.436L196.987 28.6026L196.008 28.4ZM194.858 28.35L194.789 29.3476L194.802 29.3485L194.814 29.3491L194.858 28.35ZM185.708 27.95L186.155 28.8444V28.8444L185.708 27.95ZM185.358 28.4L184.439 28.0061V28.0061L185.358 28.4ZM184.208 29.2C184.208 30.3197 184.807 31.1726 185.762 31.7182L186.754 29.9818C186.309 29.7274 186.208 29.4803 186.208 29.2H184.208ZM185.779 31.7279C186.604 32.1779 187.816 32.6347 189.367 33.1067L189.949 31.1933C188.433 30.7319 187.378 30.3221 186.737 29.9721L185.779 31.7279ZM189.347 33.1004C191.156 33.6924 192.609 34.2597 193.721 34.7995L194.595 33.0005C193.373 32.407 191.827 31.8076 189.969 31.1996L189.347 33.1004ZM193.731 34.8042C194.761 35.2907 195.668 36.0563 196.447 37.1355L198.068 35.9645C197.115 34.6437 195.955 33.6426 194.585 32.9958L193.731 34.8042ZM196.458 37.15C197.195 38.1326 197.608 39.4702 197.608 41.25H199.608C199.608 39.1631 199.121 37.3674 198.058 35.95L196.458 37.15ZM197.608 41.25C197.608 44.1151 196.689 46.1132 194.973 47.4321C193.208 48.7894 190.441 49.55 186.508 49.55V51.55C190.641 51.55 193.925 50.7606 196.192 49.0179C198.51 47.2368 199.608 44.5849 199.608 41.25H197.608ZM186.508 49.55C185.228 49.55 183.638 49.4377 181.728 49.2072L181.488 51.1928C183.445 51.429 185.121 51.55 186.508 51.55V49.55ZM181.73 49.2075C179.859 48.9777 178.162 48.6834 176.636 48.3263L176.18 50.2737C177.787 50.6499 179.557 50.9556 181.486 51.1925L181.73 49.2075ZM177.403 49.3948C177.467 48.7222 177.597 47.7268 177.797 46.3983L175.819 46.1017C175.618 47.4398 175.482 48.4778 175.412 49.2052L177.403 49.3948ZM177.794 46.4183C178.025 45.0607 178.234 44.0933 178.416 43.4873L176.5 42.9127C176.282 43.6401 176.057 44.706 175.822 46.0817L177.794 46.4183ZM177.316 44.1899C178.505 44.3597 180.272 44.5614 182.608 44.795L182.807 42.805C180.477 42.5719 178.744 42.3736 177.599 42.21L177.316 44.1899ZM182.61 44.7952C184.984 45.0293 186.807 45.15 188.058 45.15V43.15C186.909 43.15 185.165 43.0374 182.806 42.8048L182.61 44.7952ZM188.058 45.15C188.425 45.15 188.749 45.1372 189.014 45.1054C189.147 45.0895 189.285 45.0665 189.418 45.0304C189.534 44.9986 189.726 44.936 189.908 44.8L188.708 43.2C188.772 43.1519 188.826 43.1268 188.851 43.116C188.865 43.11 188.875 43.1061 188.882 43.104C188.885 43.1028 188.888 43.1021 188.889 43.1016C188.891 43.1011 188.892 43.1009 188.892 43.1009C188.892 43.1008 188.891 43.101 188.89 43.1014C188.888 43.1017 188.886 43.1022 188.884 43.1028C188.878 43.104 188.871 43.1055 188.86 43.1073C188.84 43.111 188.812 43.1153 188.776 43.1196C188.625 43.1378 188.39 43.15 188.058 43.15V45.15ZM189.863 44.8321C190.299 44.5413 190.558 44.1105 190.706 43.6662L188.809 43.0338C188.783 43.1112 188.76 43.1516 188.748 43.1683C188.738 43.1829 188.738 43.1777 188.753 43.1679L189.863 44.8321ZM190.686 43.7214C190.844 43.3269 190.958 42.9101 190.958 42.5H188.958C188.958 42.5566 188.938 42.7065 188.829 42.9786L190.686 43.7214ZM190.958 42.5C190.958 42.0019 190.837 41.5196 190.565 41.0899C190.295 40.6641 189.913 40.3462 189.474 40.1151L188.542 41.8849C188.736 41.9871 188.829 42.0859 188.875 42.1601C188.92 42.2304 188.958 42.3315 188.958 42.5H190.958ZM189.509 40.1346C188.778 39.7113 187.608 39.2515 186.068 38.7493L185.448 40.6507C186.974 41.1485 187.971 41.5553 188.507 41.8654L189.509 40.1346ZM186.053 38.7446C184.252 38.1878 182.79 37.6232 181.655 37.0556L180.761 38.8444C182.025 39.4768 183.597 40.0788 185.463 40.6554L186.053 38.7446ZM181.655 37.0556C180.623 36.5397 179.693 35.7251 178.873 34.5708L177.243 35.7292C178.222 37.1083 179.392 38.1603 180.761 38.8444L181.655 37.0556ZM178.873 34.5708C178.127 33.5212 177.708 32.0768 177.708 30.15H175.708C175.708 32.3566 176.188 34.2455 177.243 35.7292L178.873 34.5708ZM177.708 30.15C177.708 28.8406 178.004 27.5535 178.611 26.2799L176.805 25.4201C176.078 26.9465 175.708 28.5261 175.708 30.15H177.708ZM178.615 26.2717C179.26 24.8838 179.854 24.1104 180.339 23.7637L179.177 22.1363C178.262 22.7896 177.489 23.9496 176.801 25.4283L178.615 26.2717ZM180.324 23.774C180.47 23.6737 180.769 23.5301 181.286 23.3654C181.789 23.2055 182.442 23.043 183.254 22.8806L182.862 20.9194C182.007 21.0903 181.277 21.2695 180.68 21.4596C180.097 21.6449 179.579 21.8596 179.191 22.126L180.324 23.774ZM183.254 22.8806C184.866 22.5582 186.366 22.4 187.758 22.4V20.4C186.216 20.4 184.583 20.5752 182.862 20.9194L183.254 22.8806ZM187.758 22.4C191.439 22.4 194.384 22.7463 196.624 23.4089L197.191 21.4911C194.698 20.7537 191.543 20.4 187.758 20.4V22.4ZM195.909 22.4001C195.879 23.0076 195.77 23.8787 195.572 25.031L197.543 25.369C197.746 24.188 197.87 23.2257 197.907 22.4999L195.909 22.4001ZM195.568 25.0586C195.404 26.2085 195.224 27.2544 195.029 28.1974L196.987 28.6026C197.192 27.6122 197.379 26.5248 197.548 25.3414L195.568 25.0586ZM196.051 27.4009L194.901 27.3509L194.814 29.3491L195.964 29.3991L196.051 27.4009ZM194.927 27.3524C190.604 27.0531 187.8 26.9 186.558 26.9V28.9C187.716 28.9 190.445 29.0469 194.789 29.3476L194.927 27.3524ZM186.558 26.9C186.301 26.9 186.082 26.9042 185.912 26.9142C185.827 26.9192 185.739 26.9264 185.657 26.9382C185.613 26.9445 185.437 26.9675 185.261 27.0556L186.155 28.8444C186.066 28.8891 185.994 28.9063 185.978 28.9104C185.964 28.9137 185.954 28.9157 185.948 28.9167C185.945 28.9172 185.943 28.9175 185.942 28.9178C185.941 28.918 185.94 28.9181 185.94 28.9181C185.94 28.9181 185.94 28.918 185.942 28.9179C185.943 28.9177 185.944 28.9175 185.946 28.9173C185.951 28.9168 185.957 28.9161 185.965 28.9154C185.981 28.914 186.002 28.9124 186.029 28.9108C186.142 28.9041 186.315 28.9 186.558 28.9V26.9ZM185.261 27.0556C184.811 27.2804 184.572 27.6952 184.439 28.0061L186.277 28.7939C186.304 28.7313 186.318 28.7157 186.31 28.7264C186.301 28.738 186.253 28.7952 186.155 28.8444L185.261 27.0556ZM184.439 28.0061C184.277 28.3844 184.208 28.7888 184.208 29.2H186.208C186.208 29.0112 186.239 28.8823 186.277 28.7939L184.439 28.0061Z" fill="#222222" mask="url(#path-4-outside-1_200_132)"/>
</g>
<defs>
<filter id="filter0_d_200_132" x="25" y="21.35" width="177.608" height="37.2001" filterUnits="userSpaceOnUse" color-interpolation-filters="sRGB">
<feFlood flood-opacity="0" result="BackgroundImageFix"/>
<feColorMatrix in="SourceAlpha" type="matrix" values="0 0 0 0 0 0 0 0 0 0 0 0 0 0 0 0 0 0 127 0" result="hardAlpha"/>
<feOffset dy="4"/>
<feGaussianBlur stdDeviation="2"/>
<feComposite in2="hardAlpha" operator="out"/>
<feColorMatrix type="matrix" values="0 0 0 0 0 0 0 0 0 0 0 0 0 0 0 0 0 0 0.25 0"/>
<feBlend mode="normal" in2="BackgroundImageFix" result="effect1_dropShadow_200_132"/>
<feBlend mode="normal" in="SourceGraphic" in2="effect1_dropShadow_200_132" result="shape"/>
</filter>
</defs>
</svg>
